<?xml version="1.0" encoding="UTF-8"?>
<svg width="512" height="512" viewBox="0 0 512 512" fill="none" xmlns="http://www.w3.org/2000/svg">
  <path d="M256 32C245.6 32 236.8 40.8 236.8 51.2V115.2C236.8 125.6 245.6 134.4 256 134.4C266.4 134.4 275.2 125.6 275.2 115.2V51.2C275.2 40.8 266.4 32 256 32Z" fill="#FFB6C1"/>
  <path d="M256 377.6C245.6 377.6 236.8 368.8 236.8 358.4V294.4C236.8 284 245.6 275.2 256 275.2C266.4 275.2 275.2 284 275.2 294.4V358.4C275.2 368.8 266.4 377.6 256 377.6Z" fill="#FFB6C1"/>
  <path d="M160 96C153.6 89.6 153.6 78.4 160 72C166.4 65.6 177.6 65.6 184 72L230.4 118.4C236.8 124.8 236.8 136 230.4 142.4C224 148.8 212.8 148.8 206.4 142.4L160 96Z" fill="#FFB6C1"/>
  <path d="M350.4 342.4C356.8 348.8 356.8 360 350.4 366.4C344 372.8 332.8 372.8 326.4 366.4L280 320C273.6 313.6 273.6 302.4 280 296C286.4 289.6 297.6 289.6 304 296L350.4 342.4Z" fill="#FFB6C1"/>
  <path d="M96 160C89.6 166.4 78.4 166.4 72 160C65.6 153.6 65.6 142.4 72 136L118.4 89.6C124.8 83.2 136 83.2 142.4 89.6C148.8 96 148.8 107.2 142.4 113.6L96 160Z" fill="#FFB6C1"/>
  <path d="M440 376C433.6 369.6 422.4 369.6 416 376C409.6 382.4 409.6 393.6 416 400L462.4 446.4C468.8 452.8 480 452.8 486.4 446.4C492.8 440 492.8 428.8 486.4 422.4L440 376Z" fill="#FFB6C1"/>
  <path d="M160 416C166.4 422.4 166.4 433.6 160 440C153.6 446.4 142.4 446.4 136 440L89.6 393.6C83.2 387.2 83.2 376 89.6 369.6C96 363.2 107.2 363.2 113.6 369.6L160 416Z" fill="#FFB6C1"/>
  <path d="M256 192C245.6 192 236.8 200.8 236.8 211.2V275.2C236.8 285.6 245.6 294.4 256 294.4C266.4 294.4 275.2 285.6 275.2 275.2V211.2C275.2 200.8 266.4 192 256 192Z" fill="#FFB6C1"/>
  <path d="M160 288C153.6 294.4 142.4 294.4 136 288C129.6 281.6 129.6 270.4 136 264L182.4 217.6C188.8 211.2 200 211.2 206.4 217.6C212.8 224 212.8 235.2 206.4 241.6L160 288Z" fill="#FFB6C1"/>
  <path d="M350.4 150.4C344 144 332.8 144 326.4 150.4C320 156.8 320 168 326.4 174.4L372.8 220.8C379.2 227.2 390.4 227.2 396.8 220.8C403.2 214.4 403.2 203.2 396.8 196.8L350.4 150.4Z" fill="#FFB6C1"/>
  <path d="M256 0C114.8 0 0 114.8 0 256C0 397.2 114.8 512 256 512C397.2 512 512 397.2 512 256C512 114.8 397.2 0 256 0ZM256 480C132.3 480 32 379.7 32 256C32 132.3 132.3 32 256 32C379.7 32 480 132.3 480 256C480 379.7 379.7 480 256 480Z" fill="#FF69B4"/>
</svg>
